<?xml version="1.0" encoding="utf-8"?>
<!-- Generator: Adobe Illustrator 21.0.0, SVG Export Plug-In . SVG Version: 6.00 Build 0)  -->
<svg version="1.1" id="Layer_1" xmlns="http://www.w3.org/2000/svg" xmlns:xlink="http://www.w3.org/1999/xlink" x="0px" y="0px"
	 viewBox="0 0 82 82" style="enable-background:new 0 0 82 82;" xml:space="preserve">
<style type="text/css">
	.st0{fill:#FFFFFF;}
</style>
<g id="Layer_2_1_">
	<g id="Icons">
		<path class="st0" d="M48,41l-11.8,6.9V34.1L48,41z M59,47.4V34.5c0,0,0-6.2-6.2-6.2H29.2c0,0-6.2,0-6.2,6.2v12.9
			c0,0,0,6.2,6.2,6.2h23.6C52.8,53.6,59,53.6,59,47.4"/>
	</g>
</g>
<path class="st0" d="M41,82C18.4,82,0,63.6,0,41C0,18.4,18.4,0,41,0c22.6,0,41,18.4,41,41C82,63.6,63.6,82,41,82z M41,4.8
	C21,4.8,4.8,21,4.8,41c0,20,16.2,36.2,36.2,36.2c20,0,36.2-16.2,36.2-36.2C77.2,21,61,4.8,41,4.8z"/>
</svg>
