<?xml version="1.0" encoding="utf-8"?>
<!-- Generator: Adobe Illustrator 21.0.0, SVG Export Plug-In . SVG Version: 6.00 Build 0)  -->
<svg version="1.1" id="Layer_1" xmlns="http://www.w3.org/2000/svg" xmlns:xlink="http://www.w3.org/1999/xlink" x="0px" y="0px"
	 viewBox="0 0 82 82" style="enable-background:new 0 0 82 82;" xml:space="preserve">
<style type="text/css">
	.st0{fill:#FFFFFF;}
</style>
<path class="st0" d="M41,82C18.4,82,0,63.6,0,41C0,18.4,18.4,0,41,0c22.6,0,41,18.4,41,41C82,63.6,63.6,82,41,82z M41,4.8
	C21,4.8,4.8,21,4.8,41c0,20,16.2,36.2,36.2,36.2c20,0,36.2-16.2,36.2-36.2C77.2,21,61,4.8,41,4.8z"/>
<path class="st0" d="M45.5,21.4v11.8c-1.2-1.6-3.6-3.7-7.7-3.7c-6.5,0-13.6,5.7-13.6,13.7c0,8,5.8,14.2,13.7,14.2
	c4.3,0,6.5-1.9,7.6-3.4v3.4H53V19.6L45.5,21.4z M39,50c-3.6,0-6.6-2.9-6.6-6.6c0-3.6,2.9-6.6,6.6-6.6c3.6,0,6.6,2.9,6.6,6.6
	C45.5,47,42.6,50,39,50z"/>
</svg>
