<?xml version="1.0" encoding="utf-8"?>
<!-- Generator: Adobe Illustrator 21.0.0, SVG Export Plug-In . SVG Version: 6.00 Build 0)  -->
<svg version="1.1" id="Layer_1" xmlns="http://www.w3.org/2000/svg" xmlns:xlink="http://www.w3.org/1999/xlink" x="0px" y="0px"
	 viewBox="0 0 82 82" style="enable-background:new 0 0 82 82;" xml:space="preserve">
<style type="text/css">
	.st0{fill:#FFFFFF;}
</style>
<g id="Layer_2_1_">
	<g id="Icons">
		<path class="st0" d="M59,31.8c-1.3,0.6-2.8,1-4.2,1.2c1.5-0.9,2.7-2.4,3.2-4.1c-1.4,0.9-3,1.5-4.7,1.8c-2.8-3-7.5-3.1-10.4-0.3
			c-1.5,1.4-2.3,3.3-2.3,5.4c0,0.6,0.1,1.1,0.2,1.7c-5.9-0.3-11.5-3.1-15.2-7.7c-2,3.4-1,7.7,2.3,9.9c-1.2,0-2.3-0.4-3.4-0.9v0.1
			c0,3.5,2.5,6.5,5.9,7.2c-0.6,0.2-1.3,0.3-2,0.3c-0.5,0-1,0-1.4-0.1c1,3,3.7,5.1,6.9,5.1c-3.1,2.4-7,3.5-10.9,3.1
			c3.4,2.2,7.3,3.3,11.3,3.3c13.6,0,21-11.2,21-21c0-0.3,0-0.6,0-1C56.8,34.5,58,33.2,59,31.8"/>
	</g>
</g>
<path class="st0" d="M41,82C18.4,82,0,63.6,0,41C0,18.4,18.4,0,41,0c22.6,0,41,18.4,41,41C82,63.6,63.6,82,41,82z M41,4.8
	C21,4.8,4.8,21,4.8,41c0,20,16.2,36.2,36.2,36.2c20,0,36.2-16.2,36.2-36.2C77.2,21,61,4.8,41,4.8z"/>
</svg>
