<?xml version="1.0" encoding="utf-8"?>
<!-- Generator: Adobe Illustrator 21.0.0, SVG Export Plug-In . SVG Version: 6.00 Build 0)  -->
<svg version="1.1" id="Layer_1" xmlns="http://www.w3.org/2000/svg" xmlns:xlink="http://www.w3.org/1999/xlink" x="0px" y="0px"
	 viewBox="0 0 197.7 40.5" style="enable-background:new 0 0 197.7 40.5;" xml:space="preserve">
<style type="text/css">
	.st0{fill:#FFFFFF;}
	.st1{fill:#C00942;}
</style>
<g>
	<path class="st0" d="M77.9,25.6c-1.2,4.1-5.1,7.1-9.8,7.1c-6.1,0-10.5-4.8-10.5-10.4c0-5.3,4.1-10.3,10.4-10.3c5.7,0,9,4.3,9.8,7.2
		h-4.2c-0.6-1.4-2.4-3.6-5.6-3.6c-3.9,0-6.4,3.3-6.4,6.8c0,3.6,2.6,6.9,6.4,6.9c3.6,0,5.2-2.8,5.6-3.5H77.9z"/>
	<path class="st0" d="M79.7,24.8c0-3.8,2.8-7.8,7.9-7.8c5.2,0,7.9,4,7.9,7.8c0,3.8-2.8,7.9-7.9,7.9C82.5,32.7,79.7,28.7,79.7,24.8
		L79.7,24.8z M83.2,24.9c0,2.6,2,4.5,4.4,4.5c2.4,0,4.4-1.9,4.4-4.5s-1.9-4.5-4.4-4.5C85.2,20.3,83.2,22.2,83.2,24.9L83.2,24.9z"/>
	<path class="st0" d="M98.3,12.3h3.5v20h-3.5V12.3z"/>
	<path class="st0" d="M111.7,21.4c0-0.8-0.4-1.6-1.8-1.6c-1.2,0-1.8,0.8-1.8,1.5c0,0.9,1.1,1.5,2.5,1.9c2.4,0.6,4.9,1.3,5,4.5
		c0.1,3.1-2.5,5-5.6,5c-2.3,0-5.4-1.2-5.7-4.8h3.5c0.1,1.6,1.5,1.9,2.2,1.9c1.1,0,2.1-0.7,2-1.7c0-1.3-1.1-1.6-3.8-2.6
		c-2-0.6-3.6-1.7-3.6-3.9c0-2.9,2.5-4.7,5.3-4.7c2,0,5,0.9,5.3,4.5H111.7z"/>
	<path class="st0" d="M126.4,12.3h3.5v5.2v1.8c1.5-1.8,3.6-2.3,4.9-2.3c3.5,0,7.4,2.6,7.4,7.8c0,5-3.5,7.9-7.6,7.9
		c-2.3,0-4.1-1.1-4.9-2.6v2.1h-3.4V12.3z M138.8,24.8c0-2.4-1.9-4.5-4.5-4.5c-2.8,0-4.5,2.2-4.5,4.6c0,2.5,1.7,4.6,4.4,4.6
		C137.1,29.4,138.8,27.1,138.8,24.8L138.8,24.8z"/>
	<path class="st0" d="M145,12.3h3.5v20H145V12.3z"/>
	<path class="st0" d="M154.6,26c0.2,2.4,2.3,3.7,4.3,3.7c1.7,0,2.9-0.8,3.6-2h3.6c-0.7,1.6-1.8,2.9-3,3.7c-1.2,0.9-2.7,1.3-4.2,1.3
		c-4.6,0-7.8-3.7-7.8-7.8c0-4.2,3.3-7.9,7.8-7.9c2.2,0,4.2,0.8,5.5,2.3c1.8,1.9,2.5,4.2,2.2,6.8H154.6z M163.1,23.3
		c-0.1-1.4-1.6-3.4-4.2-3.3c-2.6,0-4,1.9-4.2,3.3H163.1z"/>
	<path class="st0" d="M182.9,32.3h-3.3v-2c-0.6,1.2-1.9,2.5-4.6,2.4c-4.9,0-5.8-3.7-5.8-6.3v-9h3.5v8.1c0,2.2,0.7,3.9,3.2,3.9
		c2.5,0,3.4-1.7,3.4-3.8v-8.2h3.5V32.3z"/>
	<path class="st0" d="M192.9,21.4c0-0.8-0.4-1.6-1.8-1.6c-1.2,0-1.8,0.8-1.8,1.5c0,0.9,1.1,1.5,2.5,1.9c2.4,0.6,4.9,1.3,5,4.5
		c0.1,3.1-2.5,5-5.6,5c-2.3,0-5.4-1.2-5.7-4.8h3.5c0.1,1.6,1.5,1.9,2.2,1.9c1.1,0,2.1-0.7,2-1.7c0-1.3-1.1-1.6-3.8-2.6
		c-2-0.6-3.6-1.7-3.6-3.9c0-2.9,2.5-4.7,5.3-4.7c2,0,5,0.9,5.3,4.5H192.9z"/>
</g>
<path class="st0" d="M20.2,0C9.1,0,0,9.1,0,20.2c0,11.1,9.1,20.2,20.2,20.2s20.2-9.1,20.2-20.2C40.4,9.1,31.4,0,20.2,0z M20.2,3.4
	c4,0,7.7,1.4,10.6,3.8l-7.3,7.3c-0.9-0.6-2-0.9-3.2-0.9c-3.4,0-6.2,2.8-6.2,6.2c0,1.2,0.4,2.3,0.9,3.2l-7.7,7.7
	c-2.3-2.9-3.8-6.6-3.8-10.6C3.4,11,11,3.4,20.2,3.4z M20.2,37c-4,0-7.7-1.4-10.6-3.8l7.8-7.8c0.8,0.4,1.7,0.7,2.7,0.7
	c3.4,0,6.2-2.8,6.2-6.2c0-1-0.2-1.9-0.7-2.7l7.5-7.5c2.3,2.9,3.8,6.6,3.8,10.6C37,29.5,29.5,37,20.2,37z"/>
<circle class="st1" cx="20.2" cy="19.8" r="6.2"/>
</svg>
